<svg xmlns="http://www.w3.org/2000/svg" width="303.474" height="77.498" viewBox="0 0 303.474 77.498">
  <g id="Group_352" data-name="Group 352" transform="translate(-1183.182 -913.867)">
    <ellipse id="Ellipse_667" data-name="Ellipse 667" cx="1.131" cy="1.131" rx="1.131" ry="1.131" transform="translate(1484.158 913.867) rotate(11)" fill="#3bb9fe"/>
    <ellipse id="Ellipse_668" data-name="Ellipse 668" cx="1.131" cy="1.131" rx="1.131" ry="1.131" transform="translate(1484.436 924.291) rotate(11)" fill="#3bb9fe"/>
    <ellipse id="Ellipse_669" data-name="Ellipse 669" cx="1.131" cy="1.131" rx="1.131" ry="1.131" transform="translate(1483.388 935.608) rotate(11)" fill="#3bb9fe"/>
    <ellipse id="Ellipse_670" data-name="Ellipse 670" cx="1.131" cy="1.131" rx="1.131" ry="1.131" transform="translate(1479.226 945.167) rotate(11)" fill="#3bb9fe"/>
    <ellipse id="Ellipse_671" data-name="Ellipse 671" cx="1.131" cy="1.131" rx="1.131" ry="1.131" transform="translate(1473.059 953.186) rotate(11)" fill="#3bb9fe"/>
    <ellipse id="Ellipse_672" data-name="Ellipse 672" cx="1.131" cy="1.131" rx="1.131" ry="1.131" transform="translate(1466.213 958.768) rotate(11)" fill="#3bb9fe"/>
    <ellipse id="Ellipse_673" data-name="Ellipse 673" cx="1.131" cy="1.131" rx="1.131" ry="1.131" transform="translate(1458.474 963.024) rotate(11)" fill="#3bb9fe"/>
    <ellipse id="Ellipse_674" data-name="Ellipse 674" cx="2.262" cy="2.262" rx="2.262" ry="2.262" transform="translate(1439.416 966.232) rotate(11)" fill="#3bb9fe"/>
    <ellipse id="Ellipse_675" data-name="Ellipse 675" cx="2.262" cy="2.262" rx="2.262" ry="2.262" transform="translate(1421.891 963.642) rotate(11)" fill="#3bb9fe"/>
    <ellipse id="Ellipse_676" data-name="Ellipse 676" cx="2.262" cy="2.262" rx="2.262" ry="2.262" transform="translate(1409.692 956.828) rotate(11)" fill="#3bb9fe"/>
    <ellipse id="Ellipse_677" data-name="Ellipse 677" cx="2.262" cy="2.262" rx="2.262" ry="2.262" transform="translate(1403.658 944.216) rotate(11)" fill="#3bb9fe"/>
    <ellipse id="Ellipse_678" data-name="Ellipse 678" cx="2.262" cy="2.262" rx="2.262" ry="2.262" transform="translate(1410.022 931.542) rotate(11)" fill="#3bb9fe"/>
    <ellipse id="Ellipse_679" data-name="Ellipse 679" cx="2.262" cy="2.262" rx="2.262" ry="2.262" transform="translate(1428.12 927.902) rotate(11)" fill="#3bb9fe"/>
    <ellipse id="Ellipse_680" data-name="Ellipse 680" cx="3.393" cy="3.393" rx="3.393" ry="3.393" transform="translate(1443.917 937.152) rotate(11)" fill="#3bb9fe"/>
    <ellipse id="Ellipse_681" data-name="Ellipse 681" cx="3.393" cy="3.393" rx="3.393" ry="3.393" transform="translate(1448.882 953.094) rotate(11)" fill="#3bb9fe"/>
    <ellipse id="Ellipse_682" data-name="Ellipse 682" cx="3.393" cy="3.393" rx="3.393" ry="3.393" transform="translate(1440.126 974.435) rotate(11)" fill="#3bb9fe"/>
    <ellipse id="Ellipse_683" data-name="Ellipse 683" cx="3.393" cy="3.393" rx="3.393" ry="3.393" transform="translate(1416.639 983.409) rotate(11)" fill="#3bb9fe"/>
    <ellipse id="Ellipse_684" data-name="Ellipse 684" cx="3.393" cy="3.393" rx="3.393" ry="3.393" transform="translate(1392.522 980.204) rotate(11)" fill="#3bb9fe"/>
    <ellipse id="Ellipse_685" data-name="Ellipse 685" cx="3.958" cy="3.958" rx="3.958" ry="3.958" transform="translate(1368.379 965.465) rotate(11)" fill="#3bb9fe"/>
    <ellipse id="Ellipse_686" data-name="Ellipse 686" cx="4.524" cy="4.524" rx="4.524" ry="4.524" transform="translate(1343.951 946.07) rotate(11)" fill="#3bb9fe"/>
    <ellipse id="Ellipse_687" data-name="Ellipse 687" cx="6.22" cy="6.22" rx="6.22" ry="6.22" transform="translate(1307.849 929.173) rotate(11)" fill="#3bb9fe"/>
    <ellipse id="Ellipse_688" data-name="Ellipse 688" cx="6.22" cy="6.22" rx="6.22" ry="6.22" transform="translate(1278.232 934.201) rotate(11)" fill="#3bb9fe"/>
    <ellipse id="Ellipse_708" data-name="Ellipse 708" cx="7.22" cy="7.22" rx="7.22" ry="7.22" transform="translate(1246.441 937.196) rotate(11)" fill="#3bb9fe"/>
    <g id="paperplane" transform="translate(1230.307 967.469) rotate(167)">
      <path id="Path_21236" data-name="Path 21236" d="M39.486,16.229,1.873.108A1.343,1.343,0,0,0,0,1.343V14.777A1.343,1.343,0,0,0,1.122,16.1l9.75,1.625L1.017,20.19A1.344,1.344,0,0,0,0,21.493v12.09a1.343,1.343,0,0,0,1.873,1.234L39.486,18.7a1.343,1.343,0,0,0,0-2.469Z" transform="translate(0 0)" fill="#3bb9fe"/>
    </g>
  </g>
</svg>
